<svg xmlns="http://www.w3.org/2000/svg" xmlns:xlink="http://www.w3.org/1999/xlink" width="260" height="225" version="1.1" viewBox="0 0 260 225"><title>illustration</title><desc>Created with Sketch.</desc><g id="3" fill="none" fill-rule="evenodd" stroke="none" stroke-width="1" transform="translate(-918.000000, -219.000000)"><g id="Interaction-design" transform="translate(898.000000, 181.000000)"><g id="illustration" transform="translate(21.000000, 38.000000)"><g id="grid" stroke="#DDE0E2" stroke-linecap="round" stroke-linejoin="round"><polygon id="Stroke-1" points="177.028 6.069 225.95 .78 188.818 57.072"/><polygon id="Stroke-3" points="122.632 137.315 200.969 197.156 91.975 224.5"/><polygon id="Stroke-5" points="52.007 145.105 122.631 137.315 91.975 224.499"/><polygon id="Stroke-8" points="122.633 137.314 187.361 117.154 200.969 197.154"/><polygon id="Stroke-9" points="99.092 78.672 187.359 117.153 122.632 137.314"/><polygon id="Stroke-10" points="52.007 145.104 99.092 78.672 122.632 137.314"/><polygon id="Stroke-11" points="15.867 92.829 52.005 145.104 .5 158.088"/><polygon id="Stroke-13" points=".5 158.089 52.005 145.105 26.744 216.271"/><polygon id="Stroke-15" points="26.745 216.272 52.006 145.106 91.974 224.5"/><polygon id="Stroke-18" points="187.361 117.153 188.818 57.075 253.997 110.745"/><polygon id="Stroke-19" points="187.361 117.153 253.996 110.746 200.969 197.155"/><polygon id="Stroke-20" points="117.857 42.638 177.028 6.069 188.818 57.073"/><polygon id="Stroke-21" points="117.857 42.639 188.817 57.073 187.36 117.151"/><polygon id="Stroke-22" points="99.093 78.671 117.937 42.726 186.629 116.37 186.379 116.725"/><polygon id="Stroke-23" points="50.383 34.869 117.886 42.822 99.092 78.671"/><polygon id="Stroke-24" points="15.868 92.827 50.381 34.868 99.091 78.671"/><polygon id="Stroke-25" points="188.819 57.074 257.957 51.649 253.997 110.745"/><polygon id="Stroke-27" points="188.819 57.073 225.951 .781 257.957 51.648"/></g><g id="screen" transform="translate(47.000000, 90.000000)"><polygon id="Fill-30" fill="#F6F6F6" points="61.87 130.499 61.87 120.499 66.87 120.499 66.87 112.5 .87 112.5 .87 .5 172.87 .5 172.87 112.5 106.87 112.5 106.87 120.499 111.871 120.499 111.871 130.499"/><polygon id="Stroke-31" stroke="#545E65" stroke-width="4" points="166.861 106.502 6.861 106.502 6.861 6.502 166.861 6.502"/><path id="Stroke-32" stroke="#545E65" stroke-linejoin="bevel" d="M88.361,98.0014 L85.361,101.0014"/><path id="Stroke-33" stroke="#545E65" stroke-width="2" d="M71.861,123.5006 L71.861,110.5026"/><path id="Stroke-34" stroke="#545E65" stroke-width="2" d="M101.861,110.5023 L101.861,123.5003"/><path id="Stroke-35" stroke="#545E65" stroke-width="2" d="M107.8622,125.5009 L65.8612,125.5009"/><polygon id="Fill-36" fill="#C2E9F9" points="164.861 8.502 8.861 8.502 8.861 93.502 164.861 93.502"/><polygon id="Stroke-37" stroke="#545E65" stroke-linecap="round" stroke-linejoin="round" points="8.861 62.76 24.337 93.502 59.391 93.502 75.632 47.314 8.861 54.68"/><polygon id="Stroke-38" stroke="#545E65" stroke-linecap="round" stroke-linejoin="round" points="140.36 27.154 75.632 47.315 136.096 93.502 151.646 93.502"/><polyline id="Stroke-39" stroke="#545E65" stroke-linecap="round" stroke-linejoin="round" points="140.36 27.153 97.579 8.502 60.053 8.502 75.633 47.313"/><polyline id="Stroke-40" stroke="#545E65" stroke-linecap="round" stroke-linejoin="round" points="38.037 8.502 8.861 49.666 8.861 54.679"/><path id="Stroke-41" stroke="#545E65" stroke-linecap="round" stroke-linejoin="round" d="M164.8608,24.7977 L140.3618,27.1537"/><polygon id="Stroke-42" stroke="#545E65" stroke-linecap="round" stroke-linejoin="round" points="140.812 8.502 122.964 8.502 140.36 27.152"/><polygon id="Fill-43" fill="#FFF" points="8.861 8.502 8.861 94.502 11.861 94.502 11.861 11.502 164.861 11.502 164.861 8.502"/><path id="Stroke-44" stroke="#545E65" stroke-linejoin="bevel" stroke-width="2" d="M164.861,93.5 L11.861,93.5"/></g><g id="point" transform="translate(181.000000, 112.000000)"><path id="Fill-45" fill="#545E65" d="M5.8702,9.4996 C3.6642,9.4996 1.8702,7.7056 1.8702,5.4996 C1.8702,3.2936 3.6642,1.4996 5.8702,1.4996 C8.0762,1.4996 9.8702,3.2936 9.8702,5.4996 C9.8702,7.7056 8.0762,9.4996 5.8702,9.4996"/><path id="Fill-47" fill="#C2E9F9" d="M5.8697,0.5 C3.1127,0.5 0.8697,2.743 0.8697,5.5 C0.8697,8.257 3.1127,10.5 5.8697,10.5 C8.6267,10.5 10.8697,8.257 10.8697,5.5 C10.8697,2.743 8.6267,0.5 5.8697,0.5 M5.8697,2.5 C7.5267,2.5 8.8697,3.843 8.8697,5.5 C8.8697,7.157 7.5267,8.5 5.8697,8.5 C4.2127,8.5 2.8697,7.157 2.8697,5.5 C2.8697,3.843 4.2127,2.5 5.8697,2.5"/></g><g id="cursor" transform="translate(123.000000, 138.000000)"><polygon id="Fill-49" fill="#C2E9F9" points="19.654 30.071 12.225 24.5 19.654 18.928 25.225 11.5 30.797 18.928 38.225 24.5 30.797 30.071 25.225 37.5"/><polygon id="Fill-51" fill="#545E65" points="33.226 24.5 29.226 27.5 29.226 25.5 26.226 25.5 26.226 28.5 28.226 28.5 25.226 32.5 22.226 28.5 24.226 28.5 24.226 25.5 21.226 25.5 21.226 27.5 17.226 24.5 21.226 21.5 21.226 23.5 24.226 23.5 24.226 20.5 22.226 20.5 25.226 16.5 28.226 20.5 26.226 20.5 26.226 23.5 29.226 23.5 29.226 21.5"/><polygon id="Fill-53" fill="#C2E9F9" points=".841 .115 36.71 14.463 18.776 18.05 15.189 35.984"/><polygon id="Fill-55" fill="#FF5C47" points="6.226 5.5 14.226 25.5 16.226 15.5 26.226 13.5"/><polygon id="Stroke-57" stroke="#545E65" stroke-width="2" points="6.226 5.5 14.226 25.5 16.226 15.5 26.226 13.5"/></g><g id="point" transform="translate(117.000000, 131.000000)"><path id="Fill-59" fill="#FF5C47" d="M5.8702,9.4996 C3.6642,9.4996 1.8702,7.7056 1.8702,5.4996 C1.8702,3.2936 3.6642,1.4996 5.8702,1.4996 C8.0762,1.4996 9.8702,3.2936 9.8702,5.4996 C9.8702,7.7056 8.0762,9.4996 5.8702,9.4996"/><path id="Fill-61" fill="#C2E9F9" d="M5.8697,0.5 C3.1127,0.5 0.8697,2.743 0.8697,5.5 C0.8697,8.257 3.1127,10.5 5.8697,10.5 C8.6267,10.5 10.8697,8.257 10.8697,5.5 C10.8697,2.743 8.6267,0.5 5.8697,0.5 M5.8697,2.5 C7.5267,2.5 8.8697,3.843 8.8697,5.5 C8.8697,7.157 7.5267,8.5 5.8697,8.5 C4.2127,8.5 2.8697,7.157 2.8697,5.5 C2.8697,3.843 4.2127,2.5 5.8697,2.5"/></g><polygon id="Fill-63" fill="#545E65" points="101.869 22.499 106.869 13.839 111.869 22.499"/><polygon id="Fill-65" fill="#FF5C47" points="154.869 59.808 158.869 57.499 162.869 59.808 162.869 64.427 158.869 66.736 154.869 64.427"/></g></g></g></svg>