<svg xmlns="http://www.w3.org/2000/svg" xmlns:xlink="http://www.w3.org/1999/xlink" width="236" height="206" version="1.1" viewBox="0 0 236 206"><title>Illustration</title><desc>Created with Sketch.</desc><g id="1" fill="none" fill-rule="evenodd" stroke="none" stroke-width="1" transform="translate(-580.000000, -1488.000000)"><g id="Photos" transform="translate(548.000000, 1441.000000)"><g id="Illustration" transform="translate(32.000000, 47.000000)"><polygon id="Fill-1" fill="#C2E9F9" points="154.001 .168 146.5 13.159 161.501 13.159"/><polygon id="Fill-2" fill="#FF5C47" points="127.5 48.314 133.5 44.85 139.5 48.314 139.5 55.242 133.5 58.706 127.5 55.242"/><g id="photo" transform="translate(25.000000, 100.000000)"><path id="Fill-3" fill="#FFF" d="M142.0022,104 L4.0012,104 C1.7922,104 0.0012,102.209 0.0012,100 L0.0012,4 C0.0012,1.79 1.7922,0 4.0012,0 L142.0022,0 C144.2112,0 146.0022,1.79 146.0022,4 L146.0022,100 C146.0022,102.209 144.2112,104 142.0022,104"/><path id="Stroke-5" stroke="#545E65" stroke-width="4" d="M142.0022,104 L4.0012,104 C1.7922,104 0.0012,102.209 0.0012,100 L0.0012,4 C0.0012,1.79 1.7922,0 4.0012,0 L142.0022,0 C144.2112,0 146.0022,1.79 146.0022,4 L146.0022,100 C146.0022,102.209 144.2112,104 142.0022,104 L142.0022,104 Z"/><polygon id="Fill-7" fill="#FCF9DE" points="8.002 8 138.002 8 138.002 96 8.002 96"/><polyline id="Stroke-9" stroke="#545E65" stroke-width="2" points="137.002 19.001 137.002 9 127.003 9"/><polyline id="Stroke-10" stroke="#545E65" stroke-width="2" points="19 9 9.002 9 9.002 19.001"/><polyline id="Stroke-11" stroke="#545E65" stroke-width="2" points="127.003 95 137.002 95 137.002 84.999"/><polyline id="Stroke-12" stroke="#545E65" stroke-width="2" points="9.002 84.999 9.002 95 19.001 95"/><path id="Stroke-13" stroke="#545E65" stroke-width="2" d="M46.0008,75.9978 L81.4758,40.5228 C83.9748,38.0238 88.0268,38.0238 90.5258,40.5228 L126.0008,75.9978"/><path id="Stroke-14" stroke="#545E65" stroke-width="2" d="M25.9988,65.9968 L41.4718,50.5238 C43.9708,48.0248 48.0228,48.0248 50.5218,50.5238 L57.9938,57.9958"/><path id="Fill-15" fill="#545E65" d="M31.0033,27.0013 C31.0033,29.2103 29.2123,31.0013 27.0033,31.0013 C24.7943,31.0013 23.0033,29.2103 23.0033,27.0013 C23.0033,24.7923 24.7943,23.0013 27.0033,23.0013 C29.2123,23.0013 31.0033,24.7923 31.0033,27.0013"/></g><g id="photo" transform="translate(149.000000, 44.000000)"><path id="Fill-16" fill="#F6F6F6" d="M9.0146,96.9929 C4.0516,96.9929 0.0146,92.9559 0.0146,87.9929 L0.0146,9.9949 C0.0146,5.0319 4.0516,0.9949 9.0146,0.9949 L77.0076,0.9949 C81.9706,0.9949 86.0076,5.0319 86.0076,9.9949 L86.0076,87.9929 C86.0076,92.9559 81.9706,96.9929 77.0076,96.9929 L9.0146,96.9929 Z"/><path id="Fill-17" fill="#FFF" d="M77.0081,91.9932 L9.0141,91.9932 C6.8051,91.9932 5.0141,90.2022 5.0141,87.9932 L5.0141,9.9942 C5.0141,7.7852 6.8051,5.9942 9.0141,5.9942 L77.0081,5.9942 C79.2171,5.9942 81.0081,7.7852 81.0081,9.9942 L81.0081,87.9932 C81.0081,90.2022 79.2171,91.9932 77.0081,91.9932"/><path id="Stroke-18" stroke="#545E65" stroke-width="2" d="M77.0081,91.9932 L9.0141,91.9932 C6.8051,91.9932 5.0141,90.2022 5.0141,87.9932 L5.0141,9.9942 C5.0141,7.7852 6.8051,5.9942 9.0141,5.9942 L77.0081,5.9942 C79.2171,5.9942 81.0081,7.7852 81.0081,9.9942 L81.0081,87.9932 C81.0081,90.2022 79.2171,91.9932 77.0081,91.9932 L77.0081,91.9932 Z"/><polygon id="Fill-19" fill="#D8F0C8" points="13.015 13.995 73.008 13.995 73.008 73.995 13.015 73.995"/><polygon id="Fill-20" fill="#545E65" points="50.116 46.995 55.511 46.995 47.935 36.994 53.011 36.994 43.011 22.994 33.011 36.994 38.088 36.994 30.511 46.995 35.907 46.995 28.011 56.996 40.011 56.996 40.011 64.996 46.011 64.996 46.011 56.996 58.011 56.996"/></g><g id="photo" transform="translate(0.000000, 22.000000)"><path id="Fill-21" fill="#F6F6F6" d="M9,96.991 C4.037,96.991 0,92.954 0,87.991 L0,9.993 C0,5.03 4.037,0.993 9,0.993 L76.993,0.993 C81.956,0.993 85.993,5.03 85.993,9.993 L85.993,87.991 C85.993,92.954 81.956,96.991 76.993,96.991 L9,96.991 Z"/><path id="Fill-22" fill="#FFF" d="M76.9932,91.991 L8.9992,91.991 C6.7902,91.991 4.9992,90.2 4.9992,87.991 L4.9992,9.992 C4.9992,7.783 6.7902,5.992 8.9992,5.992 L76.9932,5.992 C79.2022,5.992 80.9932,7.783 80.9932,9.992 L80.9932,87.991 C80.9932,90.2 79.2022,91.991 76.9932,91.991"/><path id="Stroke-23" stroke="#545E65" stroke-width="2" d="M76.9932,91.991 L8.9992,91.991 C6.7902,91.991 4.9992,90.2 4.9992,87.991 L4.9992,9.992 C4.9992,7.783 6.7902,5.992 8.9992,5.992 L76.9932,5.992 C79.2022,5.992 80.9932,7.783 80.9932,9.992 L80.9932,87.991 C80.9932,90.2 79.2022,91.991 76.9932,91.991 L76.9932,91.991 Z"/><polygon id="Fill-24" fill="#DDE0E2" points="13 13.993 72.993 13.993 72.993 73.993 13 73.993"/><path id="Fill-25" fill="#FF5C47" d="M42.9965,44.1016 C38.0255,44.1016 33.9965,43.2066 33.9965,42.1016 C33.9965,40.9976 38.0255,40.1016 42.9965,40.1016 C47.9675,40.1016 51.9965,40.9976 51.9965,42.1016 C51.9965,43.2066 47.9675,44.1016 42.9965,44.1016 M52.6335,29.1046 C49.8855,28.6706 47.3255,29.3676 45.3095,30.7916 C43.9255,31.7686 42.0295,31.7026 40.6365,30.7376 C39.0365,29.6296 37.1015,28.9766 35.0055,28.9766 C29.4775,28.9766 24.9965,33.4576 24.9965,38.9846 L24.9965,38.9846 C24.9965,48.9346 33.0615,56.9996 43.0115,56.9996 C52.3735,56.9996 60.0675,49.8586 60.9425,40.7266 C61.4695,35.2396 58.0775,29.9656 52.6335,29.1046"/></g></g></g></g></svg>