<svg xmlns="http://www.w3.org/2000/svg" class="font" viewBox="0 0 329.771 60"><g id="0d27a5be-904a-43ae-9d02-6e59c670f143" fill="#000"><path d="M0.38 10.95L0.38 10.95Q0.38 8.76 1.97 6.94L1.97 6.94Q3.64 5.07 5.80 5.07L5.80 5.07Q6.65 5.07 7.03 5.45Q7.41 5.84 7.41 6.69L7.41 6.69Q7.41 7.73 6.69 8.75L6.69 8.75Q6.20 9.46 5.15 10.40L5.15 10.40Q5.04 10.50 4.86 10.53L4.86 10.53L4.68 10.57Q4.68 10.28 4.99 9.60Q5.31 8.93 5.31 8.58L5.31 8.58Q5.31 7.92 5.04 7.46L5.04 7.46Q4.72 6.90 4.10 6.90L4.10 6.90Q3.32 6.90 2.91 8.23L2.91 8.23Q2.62 9.18 2.62 10.14L2.62 10.14Q2.62 11.16 3.00 12.00L3.00 12.00Q3.49 13.08 4.40 13.08L4.40 13.08Q5.11 13.08 6.01 12.26L6.01 12.26Q6.29 12.01 7.25 10.96L7.25 10.96L7.53 10.96L7.53 11.24Q7.53 11.34 6.13 13.90L6.13 13.90Q5.28 15.46 3.78 15.46L3.78 15.46Q2.06 15.46 1.15 14L1.15 14Q0.38 12.78 0.38 10.95ZM8.39 12.99L8.39 12.99Q8.39 11.55 9.13 10.39Q9.88 9.24 11.20 8.65L11.20 8.65Q11.76 8.40 12.73 8.36L12.73 8.36Q13.90 8.30 14.28 8.23L14.28 8.23L15.12 7.95Q15.16 7.95 15.20 7.94L15.20 7.94L15.29 7.94Q15.29 8.20 14.99 8.53L14.99 8.53Q14.62 8.93 14.56 9.07L14.56 9.07Q14.31 9.60 14.28 9.88L14.28 9.88Q14.27 10.00 14.27 10.70L14.27 10.70L14.27 11.55Q14.27 12.31 14.63 12.31L14.63 12.31Q14.66 12.31 14.70 12.29L14.70 12.29L15.40 11.73Q15.44 11.72 15.64 11.69L15.64 11.69Q15.64 12.56 15.04 13.87L15.04 13.87Q14.34 15.40 13.58 15.40L13.58 15.40Q13.38 15.40 13.30 15.37L13.30 15.37Q12.26 14.66 11.76 13.13L11.76 13.13Q11.38 13.87 10.96 14.57L10.96 14.57Q10.40 15.53 9.66 15.53L9.66 15.53Q8.39 15.53 8.39 12.99ZM10.35 11.89L10.35 11.89Q10.35 12.74 10.84 12.74L10.84 12.74Q11.26 12.74 11.75 11.62L11.75 11.62Q12.19 10.60 12.19 10.02L12.19 10.02Q11.06 10.02 10.70 10.39Q10.35 10.75 10.35 11.89ZM16.38 10.74L16.38 10.74Q16.38 8.82 17.43 7.13L17.43 7.13Q18.45 5.47 20.16 4.52L20.16 4.52Q20.20 4.52 20.30 4.51Q20.40 4.49 20.44 4.49L20.44 4.49Q20.89 4.49 21.11 5.05L21.11 5.05Q21.28 5.46 21.28 5.99L21.28 5.99Q21.28 7.41 20.52 8.69L20.52 8.69Q20.06 9.48 18.76 10.96L18.76 10.96L18.76 11.17Q18.76 11.69 18.90 12.21L18.90 12.21Q19.10 12.94 19.46 12.94L19.46 12.94Q19.70 12.94 19.88 12.78L19.88 12.78Q20.51 12.24 21 11.66L21 11.66L21.27 11.66Q21.27 12.99 20.58 14.13L20.58 14.13Q19.78 15.46 18.48 15.46L18.48 15.46Q17.33 15.46 16.76 13.47L16.76 13.47Q16.38 12.15 16.38 10.74ZM19.11 6.73L19.11 6.73Q18.97 6.73 18.79 7.73L18.79 7.73Q18.58 8.88 18.58 9.98L18.58 9.98L18.76 9.98Q18.94 9.98 19.15 9.09L19.15 9.09Q19.33 8.30 19.33 7.99L19.33 7.99Q19.33 7.11 19.18 6.76L19.18 6.76Q19.15 6.73 19.11 6.73ZM22.13 12.84L22.13 12.84Q22.13 11.16 23.38 9.58L23.38 9.58Q24.71 7.90 26.36 7.90L26.36 7.90Q26.94 7.90 27.34 8.22Q27.75 8.54 27.75 9.10L27.75 9.10L27.75 9.17Q27.47 10.02 26.63 11.13L26.63 11.13Q25.89 12.11 25.79 12.11L25.79 12.11L25.48 12.11Q25.48 11.87 25.63 11.41Q25.79 10.95 25.79 10.71L25.79 10.71Q25.79 10.30 25.53 10.01Q25.27 9.72 24.88 9.72L24.88 9.72Q24.29 9.72 24.08 10.26L24.08 10.26Q23.95 10.60 23.95 11.31L23.95 11.31Q23.95 12.17 24.40 12.66L24.40 12.66Q24.77 13.05 25.65 13.37L25.65 13.37L25.86 13.38Q25.89 13.38 26.07 13.37L26.07 13.37L27.05 12.95Q27.10 12.94 27.13 12.94L27.13 12.94Q27.34 12.94 27.34 13.37L27.34 13.37Q27.34 14.06 26.24 14.87L26.24 14.87Q25.19 15.62 24.46 15.62L24.46 15.62Q23.70 15.62 23.55 15.47L23.55 15.47L22.43 14.35Q22.13 14.06 22.13 12.84ZM31.86 14.01L31.86 14.01Q31.75 14.01 31.72 14.04L31.72 14.04Q31.09 14.67 30.86 14.85L30.86 14.85Q30.25 15.32 29.75 15.32L29.75 15.32Q29.27 15.32 28.92 14.64L28.92 14.64Q28.63 14.07 28.63 13.57L28.63 13.57Q28.63 13.08 28.91 12.14Q29.19 11.20 29.19 10.71L29.19 10.71Q29.09 10.71 28.90 10.78Q28.71 10.85 28.62 10.85L28.62 10.85Q28.62 10.12 29.75 9.53L29.75 9.53Q30.13 9.34 31.44 8.86L31.44 8.86L31.58 8.86Q31.74 8.93 31.74 9.07L31.74 9.07Q31.74 9.11 31.72 9.14L31.72 9.14Q31.15 10.50 31.15 11.47L31.15 11.47Q31.15 12.29 31.30 12.64L31.30 12.64Q32.00 12.25 32.00 10.12L32.00 10.12Q32.49 9.46 33.34 8.99Q34.19 8.51 34.97 8.51L34.97 8.51Q34.97 8.95 34.67 9.91Q34.37 10.86 34.37 11.34L34.37 11.34Q34.37 12.66 34.87 12.66L34.87 12.66Q35.10 12.66 35.61 12.21Q36.12 11.77 36.37 11.77L36.37 11.77Q36.37 12.82 35.63 14.07L35.63 14.07Q34.80 15.46 33.82 15.46L33.82 15.46Q33.36 15.46 32.94 15.08L32.94 15.08Q32.76 14.91 32.33 14.39L32.33 14.39Q32.02 14.01 31.86 14.01ZM38.89 15.44L38.89 15.44Q38.61 15.44 38.07 15.61Q37.53 15.78 37.25 15.78L37.25 15.78Q37.25 15.44 37.45 14.84L37.45 14.84Q37.67 14.13 37.72 13.92L37.72 13.92Q37.87 13.02 37.87 10.49L37.87 10.49L37.87 9.39L37.86 8.32Q37.86 8.01 37.58 7.41Q37.30 6.82 37.30 6.57L37.30 6.57L37.30 6.50Q38.32 5.77 38.82 5.50L38.82 5.50Q39.75 5.01 40.53 5.01L40.53 5.01Q40.53 5.54 40.32 6.52L40.32 6.52Q40.11 7.55 40.10 8.04L40.10 8.04Q40.04 10.25 40.10 13.22L40.10 13.22L39.68 13.92L39.82 13.92Q40.01 13.92 40.41 13.84Q40.81 13.76 41.01 13.76L41.01 13.76Q41.48 13.76 42.44 13.92Q43.40 14.07 43.88 14.07L43.88 14.07Q44.04 14.07 44.38 13.99Q44.72 13.90 44.88 13.90L44.88 13.90L44.86 14.06Q44.59 14.87 43.74 15.39L43.74 15.39Q42.95 15.88 42.06 15.88L42.06 15.88Q41.52 15.88 40.47 15.66Q39.42 15.44 38.89 15.44ZM46.27 14.32L46.27 10.99Q46.09 10.99 45.73 11.14Q45.37 11.28 45.19 11.28L45.19 11.28Q45.19 10.40 46.68 9.45L46.68 9.45Q48.05 8.57 48.96 8.57L48.96 8.57Q48.96 8.86 48.51 9.84L48.51 9.84L48.51 10.36Q48.51 10.37 48.50 10.72L48.50 10.72Q48.50 10.81 48.50 10.89L48.50 10.89Q48.50 11.76 48.51 11.94L48.51 11.94Q48.55 12.50 48.65 12.50L48.65 12.50L48.93 12.50L50.47 11.52Q50.50 11.51 50.54 11.51L50.54 11.51Q50.76 11.51 50.76 12.17L50.76 12.17Q50.76 12.98 49.44 14.22Q48.12 15.46 47.29 15.46L47.29 15.46Q46.27 15.46 46.27 14.32L46.27 14.32ZM47.26 6.48L47.26 6.48L47.26 6.20Q47.26 6.10 47.25 6.01L47.25 6.01L47.25 5.92Q47.22 5.88 46.98 5.74L46.98 5.74Q46.82 5.64 46.82 5.50L46.82 5.50Q46.82 5.53 46.83 5.36L46.83 5.36L47.92 4.59Q48.71 4.09 49.22 4.09L49.22 4.09Q49.49 4.09 49.49 4.45L49.49 4.45Q49.49 5.74 47.81 7.60L47.81 7.60Q47.05 8.44 46.97 8.44L46.97 8.44L46.65 8.44Q46.65 8.15 46.96 7.48Q47.26 6.82 47.26 6.48ZM51.81 10.53L51.81 10.53Q51.63 10.53 51.28 10.76Q50.93 10.99 50.76 10.99L50.76 10.99L50.76 10.26Q50.76 10.05 52.04 8.99L52.04 8.99Q53.37 7.87 53.79 7.87L53.79 7.87Q54.12 7.87 54.50 9.35L54.50 9.35Q54.91 10.93 55.24 11.10L55.24 11.10Q55.66 10.77 56.36 9.66L56.36 9.66Q57.15 8.43 57.55 7.98L57.55 7.98Q58.30 7.17 59.09 7.17L59.09 7.17Q59.74 7.17 59.74 7.39L59.74 7.39L59.74 7.42Q59.72 7.45 59.72 7.46L59.72 7.46Q58.55 8.72 57.76 9.84L57.76 9.84Q57.43 10.32 56.94 12.04L56.94 12.04Q56.52 13.50 55.80 14.04L55.80 14.04Q53.98 15.44 53.84 15.44L53.84 15.44L53.56 15.44Q53.56 14.69 53.42 14.17Q53.27 13.65 52.86 12.22L52.86 12.22Q52.40 10.53 51.81 10.53ZM59.26 12.82L59.26 12.82Q59.26 11.07 60.60 9.75Q61.94 8.43 63.69 8.43L63.69 8.43Q64.34 8.43 64.62 8.68Q64.89 8.93 64.89 9.58L64.89 9.58Q64.89 10.50 63.84 11.28L63.84 11.28Q62.96 11.82 62.08 12.36L62.08 12.36L61.94 12.50Q61.94 12.53 61.92 12.57L61.92 12.57Q61.92 12.80 62.24 13.05L62.24 13.05Q62.51 13.26 62.78 13.34L62.78 13.34L62.85 13.34Q63.27 13.34 64.13 12.69Q65.00 12.04 65.18 12.04L65.18 12.04Q65.18 13.23 63.95 14.34Q62.72 15.46 61.52 15.46L61.52 15.46Q60.47 15.46 59.84 14.64L59.84 14.64Q59.26 13.90 59.26 12.82ZM61.80 10.12L61.80 10.12Q61.29 10.81 61.29 11.56L61.29 11.56Q61.57 11.56 61.97 11.14Q62.37 10.71 62.37 10.42L62.37 10.42Q62.37 10.11 62.01 10.11L62.01 10.11L61.91 10.11Q61.81 10.12 61.80 10.12Z" transform="matrix(5.089058540638861,0,0,5.089058540638861,-1.9338460363372008,-20.81425068457881)"/></g></svg>